<svg width="148" height="44" viewBox="0 0 148 44" fill="none" xmlns="http://www.w3.org/2000/svg">
<path fill-rule="evenodd" clip-rule="evenodd" d="M3.30112 0C1.47796 0 0 1.37438 0 3.06977V40.9302C0 42.6256 1.47796 44 3.30112 44H144.699C146.522 44 148 42.6256 148 40.9302V3.06977C148 1.37438 146.522 0 144.699 0H3.30112Z" fill="black"/>
<path fill-rule="evenodd" clip-rule="evenodd" d="M11.5587 35.7751L11.4773 35.697C11.1572 35.3582 10.968 34.8324 10.968 34.1515V34.311V9.98438V9.97888V10.1461C10.968 9.4091 11.1891 8.85252 11.5576 8.52033L25.1861 22.1477L11.5587 35.7751ZM10.968 9.97778C10.968 9.91728 10.9702 9.85788 10.9724 9.80068C10.9702 9.85788 10.968 9.91728 10.968 9.97778ZM10.9735 9.79738V9.79518V9.79738ZM10.9735 9.78968V9.78858V9.78968Z" fill="url(#paint0_linear)"/>
<path fill-rule="evenodd" clip-rule="evenodd" d="M29.7296 26.8533L29.833 26.7939L35.2151 23.736C35.7288 23.4445 36.0709 23.0914 36.2414 22.7163C36.0709 23.0914 35.7288 23.4445 35.2151 23.7371L29.833 26.795L29.7296 26.8533ZM29.7307 26.6916L25.1879 22.1477L29.7307 17.6048L35.2151 20.721C35.9125 21.1159 36.303 21.6263 36.3679 22.1477V22.1499C36.303 22.669 35.9125 23.1794 35.2151 23.5754L29.7307 26.6916Z" fill="url(#paint1_linear)"/>
<path fill-rule="evenodd" clip-rule="evenodd" d="M12.5292 36.2936C12.1486 36.2936 11.8175 36.1694 11.558 35.9362V35.9351C11.8175 36.1694 12.1497 36.2936 12.5303 36.2936C12.5633 36.2936 12.5974 36.2925 12.6315 36.2903C12.5974 36.2925 12.5633 36.2936 12.5292 36.2936ZM12.5303 36.132C12.1497 36.1331 11.8175 36.0088 11.558 35.7745L25.1853 22.1471L29.7281 26.691L13.7623 35.7635C13.3212 36.0143 12.9021 36.132 12.5303 36.132ZM11.5547 35.9329C11.5305 35.9109 11.5063 35.8878 11.4832 35.8636L11.5547 35.9329Z" fill="url(#paint2_linear)"/>
<path fill-rule="evenodd" clip-rule="evenodd" d="M25.1896 22.1455L11.5611 8.51808C11.8207 8.28489 12.1518 8.16059 12.5324 8.16059C12.9052 8.16059 13.3243 8.27939 13.7665 8.53128L29.7324 17.6026L25.1896 22.1455ZM29.8347 17.5003L13.7665 8.37069C13.3243 8.1188 12.9052 8 12.5324 8H12.528H12.5335C12.9063 8 13.3243 8.11879 13.7665 8.36958L29.8347 17.4992V17.5003Z" fill="url(#paint3_linear)"/>
<path d="M12.6329 36.2909C12.9782 36.2711 13.361 36.1523 13.7636 35.9246L29.7284 26.8533L13.7636 35.9246C13.361 36.1534 12.9782 36.2722 12.6329 36.2909ZM11.5593 35.9367L11.556 35.9334C11.5571 35.9345 11.5582 35.9356 11.5593 35.9367ZM11.4845 35.8641L11.4779 35.8575C11.4801 35.8597 11.4823 35.8619 11.4845 35.8641Z" fill="black"/>
<path fill-rule="evenodd" clip-rule="evenodd" d="M29.7302 26.8528L29.8336 26.7934L29.7302 26.8528Z" fill="url(#paint4_linear)"/>
<path fill-rule="evenodd" clip-rule="evenodd" d="M12.5317 36.292C12.1511 36.292 11.8189 36.1677 11.5593 35.9334V35.9345C11.5582 35.9334 11.5571 35.9323 11.556 35.9312L11.4845 35.8619C11.4823 35.8597 11.4801 35.8575 11.4779 35.8553L11.5593 35.7728C11.8189 36.0071 12.1511 36.1314 12.5317 36.1303C12.9035 36.1303 13.3225 36.0126 13.7636 35.7618L29.7295 26.6894L29.8318 26.7916L29.7284 26.851L13.7636 35.9224C13.361 36.1501 12.9782 36.2689 12.6329 36.2887C12.5988 36.2909 12.5647 36.292 12.5317 36.292Z" fill="url(#paint5_linear)"/>
<path d="M11.4773 35.8557C11.1572 35.517 10.968 34.9912 10.968 34.3103V34.3092C10.968 34.9912 11.1572 35.517 11.4773 35.8546V35.8557Z" fill="black"/>
<path fill-rule="evenodd" clip-rule="evenodd" d="M11.4773 35.8555C11.1572 35.5178 10.968 34.992 10.968 34.31V34.1506C10.968 34.8314 11.1572 35.3572 11.4773 35.696L11.5587 35.7741L11.4773 35.8555Z" fill="url(#paint6_linear)"/>
<path fill-rule="evenodd" clip-rule="evenodd" d="M11.4779 35.8564V35.8553L11.5593 35.7739L11.4779 35.8564Z" fill="url(#paint7_linear)"/>
<path d="M36.2392 22.7147C36.3239 22.5299 36.3657 22.3385 36.3657 22.1482C36.3657 22.1471 36.3668 22.1471 36.3668 22.1471C36.3668 22.3385 36.3239 22.5288 36.2392 22.7147Z" fill="black"/>
<path fill-rule="evenodd" clip-rule="evenodd" d="M29.8325 26.7937L29.7302 26.6914L35.2146 23.5752C35.912 23.1792 36.3024 22.6689 36.3673 22.1497C36.3673 22.34 36.3255 22.5314 36.2408 22.7162C36.0703 23.0912 35.7283 23.4443 35.2146 23.7358L29.8325 26.7937Z" fill="url(#paint8_linear)"/>
<path d="M36.3702 22.147H36.3691C36.3691 21.5717 35.9852 20.9964 35.2163 20.5598L29.8342 17.5019V17.5008L35.2163 20.5598C35.9852 20.9964 36.3702 21.5717 36.3702 22.147Z" fill="#404040"/>
<path fill-rule="evenodd" clip-rule="evenodd" d="M36.3673 22.1459C36.3024 21.6245 35.912 21.1141 35.2146 20.7193L29.7302 17.6031L29.8325 17.5008L35.2146 20.5587C35.9835 20.9953 36.3673 21.5706 36.3673 22.1459Z" fill="url(#paint9_linear)"/>
<path d="M10.968 9.97662V9.97552V9.97662ZM10.9724 9.79843C10.9735 9.79733 10.9735 9.79623 10.9735 9.79513C10.9735 9.79623 10.9735 9.79733 10.9724 9.79843ZM10.9735 9.79293V9.78743V9.79293ZM10.9735 9.78633C11.0373 8.65667 11.6511 8.0044 12.5201 8C12.1439 8.0022 11.8161 8.12539 11.5587 8.35748L11.5554 8.36078C11.529 8.38498 11.5026 8.41028 11.4773 8.43668C11.1891 8.74247 11.0065 9.20005 10.9735 9.78633Z" fill="#404040"/>
<path fill-rule="evenodd" clip-rule="evenodd" d="M10.968 10.1453V9.98473V9.97813V9.97704C10.968 9.91654 10.9702 9.85714 10.9724 9.79994C10.9735 9.79884 10.9735 9.79774 10.9735 9.79664V9.79444V9.78894V9.78784C11.0065 9.20156 11.1891 8.74398 11.4773 8.43819L11.5576 8.51959C11.1891 8.85178 10.968 9.40836 10.968 10.1453ZM11.5554 8.36229L11.5587 8.35899C11.5576 8.36009 11.5565 8.36119 11.5554 8.36229Z" fill="url(#paint10_linear)"/>
<path fill-rule="evenodd" clip-rule="evenodd" d="M29.7295 17.6026L13.7636 8.53128C13.3214 8.27939 12.9024 8.16059 12.5295 8.16059C12.1489 8.16059 11.8178 8.28489 11.5582 8.51808L11.4779 8.43668C11.5032 8.41028 11.5296 8.38498 11.556 8.36079C11.5571 8.35969 11.5582 8.35858 11.5593 8.35748C11.8167 8.12539 12.1445 8.0022 12.5207 8H12.5295C12.9024 8 13.3214 8.1188 13.7636 8.37069L29.8318 17.5003L29.7295 17.6026Z" fill="url(#paint11_linear)"/>
<path d="M52.0143 11.8249C52.0143 12.7466 51.7415 13.4803 51.1948 14.028C50.5734 14.6781 49.7649 15.0037 48.7706 15.0037C47.818 15.0037 47.0074 14.6737 46.3419 14.0137C45.6743 13.3527 45.3421 12.5343 45.3421 11.5565C45.3421 10.5797 45.6743 9.76137 46.3419 9.10031C47.0074 8.43925 47.818 8.10927 48.7706 8.10927C49.2425 8.10927 49.6956 8.20166 50.1246 8.38645C50.5547 8.57124 50.899 8.81653 51.1574 9.12341L50.5767 9.70418C50.14 9.18171 49.5383 8.92102 48.7706 8.92102C48.0754 8.92102 47.4749 9.16521 46.9678 9.65358C46.4607 10.142 46.2077 10.7766 46.2077 11.5565C46.2077 12.3374 46.4607 12.9721 46.9678 13.4605C47.4749 13.9488 48.0754 14.193 48.7706 14.193C49.5075 14.193 50.1213 13.9477 50.6141 13.4561C50.9331 13.136 51.1178 12.6905 51.1662 12.1196H48.7706V11.3266H51.9681C51.9989 11.4993 52.0143 11.6643 52.0143 11.8249Z" fill="white"/>
<path d="M52.0144 11.8256H51.9044C51.9033 12.7264 51.6404 13.4249 51.1168 13.9507L51.1157 13.9518V13.9529C50.5141 14.5809 49.7419 14.8933 48.7707 14.8944C47.8434 14.8933 47.0669 14.5776 46.419 13.9364C45.7723 13.294 45.4533 12.5097 45.4522 11.5572C45.4533 10.6046 45.7723 9.82149 46.419 9.17913C47.0669 8.53787 47.8434 8.22109 48.7707 8.21999C49.2282 8.21999 49.6649 8.30908 50.0818 8.48837C50.4987 8.66766 50.8276 8.90305 51.0728 9.19453L51.1575 9.12414L51.0794 9.04604L50.4998 9.62681L50.5768 9.7049L50.6615 9.63451C50.2039 9.08564 49.5626 8.80955 48.7707 8.81175C48.0491 8.81065 47.4156 9.06804 46.892 9.57511C46.3618 10.0844 46.0967 10.7542 46.0978 11.5572C46.0967 12.3612 46.3618 13.0311 46.892 13.5404C47.4156 14.0474 48.0491 14.3048 48.7707 14.3037C49.5318 14.3048 50.1808 14.0463 50.6912 13.5349C51.0321 13.1928 51.2257 12.7187 51.2763 12.1292L51.2873 12.0104H48.8807V11.4373H51.9682V11.3273L51.8604 11.3471C51.8901 11.5132 51.9044 11.6716 51.9044 11.8256H52.1244C52.1244 11.6584 52.109 11.4857 52.076 11.3075L52.0606 11.2173H48.6607V12.2304H51.1663V12.1204L51.0574 12.1105C51.009 12.6637 50.8331 13.0806 50.5361 13.3787C50.0631 13.8495 49.4834 14.0826 48.7707 14.0837C48.1008 14.0826 47.5343 13.8528 47.0449 13.382C46.5598 12.9134 46.3189 12.315 46.3178 11.5572C46.3189 10.8004 46.5598 10.2021 47.0449 9.7335C47.5343 9.26273 48.1008 9.03284 48.7707 9.03174C49.5142 9.03284 50.0752 9.27923 50.4932 9.7753L50.5702 9.86769L51.2345 9.20223L51.306 9.13074L51.2411 9.05374C50.9705 8.73146 50.6109 8.47627 50.1687 8.28598C49.7254 8.0957 49.2568 8 48.7707 8C47.7917 7.9989 46.9481 8.34318 46.2639 9.02294C45.5776 9.7016 45.2311 10.5552 45.2322 11.5572C45.2311 12.5592 45.5776 13.4128 46.2639 14.0925C46.9481 14.7723 47.7928 15.1155 48.7707 15.1144C49.7881 15.1155 50.634 14.7778 51.2741 14.1046L51.1949 14.0287L51.273 14.1057C51.8428 13.5371 52.1255 12.7671 52.1244 11.8256H52.0144Z" fill="white"/>
<path d="M57.0841 9.06931H54.0791V11.1614H56.7893V11.9544H54.0791V14.0465H57.0841V14.8572H53.231V8.25755H57.0841V9.06931Z" fill="white"/>
<path d="M57.0839 9.07003V8.96004H53.9689V11.2721H56.6791V11.8452H53.9689V14.1572H56.9739V14.7479H53.3408V8.36827H56.9739V9.07003H57.0839V8.96004V9.07003H57.1939V8.25828V8.14828H53.1208V14.9679H57.1939V14.0472V13.9372H54.1889V12.0652H56.8991V11.1621V11.0521H54.1889V9.18002H57.1939V9.07003H57.0839Z" fill="white"/>
<path d="M60.6599 14.8572H59.8118V9.06931H57.9683V8.25755H62.5034V9.06931H60.6599V14.8572Z" fill="white"/>
<path d="M60.6599 14.8579V14.7479H59.9219V8.96004H58.0784V8.36827H62.3934V8.96004H60.55V14.8579H60.6599V14.7479V14.8579H60.7699V9.18002H62.6134V8.25828V8.14828H57.8584V9.18002H59.7019V14.9679H60.7699V14.8579H60.6599Z" fill="white"/>
<path d="M66.6327 8.25755H65.7858V14.8572H66.6327V8.25755Z" fill="white"/>
<path d="M65.7855 14.8579H65.8955V8.36827H66.5225V14.7479H65.7855V14.8579H65.8955H65.7855V14.9679H66.7424V8.14828H65.7855H65.6755V14.9679H65.7855V14.8579Z" fill="white"/>
<path d="M70.3942 14.8572H69.5451V9.06931H67.7027V8.25755H72.2377V9.06931H70.3942V14.8572Z" fill="white"/>
<path d="M70.3943 14.8579V14.7479H69.6552V8.96004H67.8128V8.36827H72.1278V8.96004H70.2843V14.8579H70.3943V14.7479V14.8579H70.5043V9.18002H72.3478V8.25828V8.14828H67.5928V9.18002H69.4352V14.9679H70.5043V14.8579H70.3943Z" fill="white"/>
<path d="M76.6101 13.4517C77.0984 13.9455 77.6957 14.193 78.403 14.193C79.1091 14.193 79.7075 13.9455 80.1959 13.4517C80.6842 12.9567 80.9295 12.3253 80.9295 11.5565C80.9295 10.7887 80.6842 10.1573 80.1959 9.66238C79.7075 9.16851 79.1091 8.92102 78.403 8.92102C77.6957 8.92102 77.0984 9.16851 76.6101 9.66238C76.1217 10.1573 75.8775 10.7887 75.8775 11.5565C75.8775 12.3253 76.1217 12.9567 76.6101 13.4517ZM80.8228 14.0038C80.1739 14.6715 79.3676 15.0037 78.403 15.0037C77.4383 15.0037 76.631 14.6715 75.9842 14.0038C75.3352 13.3373 75.0119 12.5211 75.0119 11.5565C75.0119 10.5918 75.3352 9.77677 75.9842 9.11021C76.631 8.44255 77.4383 8.10927 78.403 8.10927C79.3621 8.10927 80.1662 8.44475 80.8184 9.11461C81.4696 9.78447 81.7952 10.5984 81.7952 11.5565C81.7952 12.5211 81.4707 13.3373 80.8228 14.0038Z" fill="white"/>
<path d="M76.6102 13.4524L76.5321 13.5294C77.038 14.0441 77.6705 14.3048 78.403 14.3037C79.1356 14.3048 79.7681 14.0441 80.274 13.5294C80.7833 13.0146 81.0407 12.3491 81.0396 11.5572C81.0407 10.7663 80.7833 10.1009 80.274 9.58611C79.7681 9.07134 79.1356 8.81065 78.403 8.81175C77.6705 8.81065 77.038 9.07134 76.5321 9.58611C76.0228 10.1009 75.7665 10.7663 75.7676 11.5572C75.7665 12.3491 76.0228 13.0146 76.5321 13.5294L76.6102 13.4524L76.6882 13.3743C76.2219 12.9002 75.9887 12.3029 75.9876 11.5572C75.9887 10.8125 76.2219 10.2153 76.6882 9.7401V9.7412C77.159 9.26603 77.7211 9.03284 78.403 9.03174C79.0839 9.03284 79.6471 9.26603 80.1167 9.7401V9.7412C80.5853 10.2153 80.8185 10.8125 80.8196 11.5572C80.8185 12.3029 80.5853 12.9002 80.1167 13.3743C79.6471 13.8495 79.0839 14.0826 78.403 14.0837C77.7211 14.0826 77.159 13.8495 76.6882 13.3743L76.6102 13.4524ZM80.8229 14.0045L80.7437 13.9276C80.1134 14.5743 79.3424 14.8933 78.403 14.8944C77.4637 14.8933 76.6915 14.5743 76.0624 13.9276L76.0591 13.9254L76.0624 13.9276C75.4332 13.2797 75.123 12.4976 75.1219 11.5572C75.123 10.6178 75.4332 9.83579 76.0624 9.18793C76.6915 8.54117 77.4637 8.22109 78.403 8.21999C79.3369 8.22109 80.1057 8.54227 80.7393 9.19233C81.3718 9.84349 81.6842 10.6233 81.6853 11.5572C81.6842 12.4976 81.3718 13.2797 80.7437 13.9276L80.9021 14.0815C81.5687 13.3963 81.9063 12.5471 81.9052 11.5572C81.9063 10.5739 81.5676 9.7269 80.8977 9.03834C80.2267 8.34868 79.3875 7.9989 78.403 8C77.4131 7.9989 76.5706 8.34648 75.9051 9.03394C75.2363 9.7192 74.9008 10.5684 74.9019 11.5572C74.9008 12.5471 75.2363 13.3963 75.9051 14.0815L75.9084 14.0848L75.9051 14.0815C76.5706 14.769 77.4131 15.1155 78.403 15.1144C79.393 15.1155 80.2344 14.769 80.9021 14.0815L80.8229 14.0045Z" fill="white"/>
<path d="M82.9854 14.8572V8.25755H84.0171L87.2245 13.3921H87.2608L87.2245 12.1205V8.25755H88.0737V14.8572H87.1882L83.8323 9.47518H83.796L83.8323 10.7467V14.8572H82.9854Z" fill="white"/>
<path d="M82.9851 14.8579H83.0951V8.36827H83.9564L87.1638 13.5028H87.3739L87.3343 12.1191V8.36827H87.9634V14.7479H87.2496L83.8937 9.36591H83.7958H83.6825L83.7221 10.7496V14.7479H82.9851V14.8579H83.0951H82.9851V14.9679H83.9421V10.7463L83.9058 9.47261L83.7958 9.47591V9.5859H83.8321V9.47591L83.7386 9.5342L87.1275 14.9679H88.1834V8.14828H87.2243H87.1143V12.1224L87.1506 13.3961L87.2606 13.3928V13.2828H87.2243V13.3928L87.3178 13.3345L84.0785 8.14828H82.9851H82.8751V14.9679H82.9851V14.8579Z" fill="white"/>
<path d="M117.48 33.5561H119.533V19.8047H117.48V33.5561ZM135.967 24.7577L133.614 30.7193H133.544L131.102 24.7577H128.891L132.553 33.0908L130.465 37.7248H132.607L138.249 24.7577H135.967ZM124.327 31.9931C123.654 31.9931 122.717 31.6576 122.717 30.826C122.717 29.7646 123.885 29.3576 124.893 29.3576C125.796 29.3576 126.219 29.5523 126.768 29.8174C126.609 31.0911 125.512 31.9931 124.327 31.9931ZM124.575 24.4574C123.089 24.4574 121.55 25.1119 120.913 26.5627L122.735 27.3238C123.124 26.5627 123.849 26.3152 124.61 26.3152C125.671 26.3152 126.75 26.952 126.768 28.0839V28.2258C126.396 28.0135 125.601 27.6945 124.628 27.6945C122.664 27.6945 120.665 28.7735 120.665 30.7908C120.665 32.6299 122.275 33.8156 124.079 33.8156C125.459 33.8156 126.219 33.1964 126.698 32.4715H126.768V33.533H128.749V28.261C128.749 25.8191 126.928 24.4574 124.575 24.4574ZM111.89 26.4318H108.971V21.7186H111.89C113.425 21.7186 114.296 22.989 114.296 24.0757C114.296 25.1416 113.425 26.4318 111.89 26.4318ZM111.838 19.8047H106.92V33.5561H108.971V28.3457H111.838C114.112 28.3457 116.348 26.6991 116.348 24.0757C116.348 21.4513 114.112 19.8047 111.838 19.8047ZM85.0189 31.9963C83.6022 31.9963 82.4143 30.8084 82.4143 29.1783C82.4143 27.5306 83.6022 26.3262 85.0189 26.3262C86.4192 26.3262 87.518 27.5306 87.518 29.1783C87.518 30.8084 86.4192 31.9963 85.0189 31.9963ZM87.3761 25.5287H87.3057C86.8448 24.9788 85.9583 24.4827 84.8419 24.4827C82.5034 24.4827 80.3585 26.5385 80.3585 29.1783C80.3585 31.8017 82.5034 33.8387 84.8419 33.8387C85.9583 33.8387 86.8448 33.3427 87.3057 32.7762H87.3761V33.4494C87.3761 35.239 86.4192 36.1959 84.8771 36.1959C83.6198 36.1959 82.84 35.2918 82.521 34.5306L80.7314 35.2742C81.2451 36.5149 82.609 38.0394 84.8771 38.0394C87.2881 38.0394 89.3252 36.6216 89.3252 33.1656V24.7665H87.3761V25.5287ZM90.743 33.5561H92.7988V19.8047H90.743V33.5561ZM95.8291 29.0188C95.7752 27.2116 97.2293 26.2899 98.2743 26.2899C99.0904 26.2899 99.7812 26.698 100.011 27.2831L95.8291 29.0188ZM102.209 27.4602C101.819 26.4142 100.631 24.4827 98.2039 24.4827C95.7939 24.4827 93.7909 26.379 93.7909 29.1607C93.7909 31.7841 95.7752 33.8387 98.4338 33.8387C100.579 33.8387 101.819 32.5276 102.333 31.7654L100.738 30.7028C100.207 31.4827 99.4798 31.9963 98.4338 31.9963C97.3877 31.9963 96.6442 31.5179 96.1657 30.5785L102.421 27.9915L102.209 27.4602ZM52.3718 25.9181V27.9024H57.1213C56.9794 29.0188 56.6076 29.8339 56.04 30.4014C55.3493 31.0922 54.2681 31.8545 52.3718 31.8545C49.4481 31.8545 47.1625 29.4973 47.1625 26.5737C47.1625 23.65 49.4481 21.2929 52.3718 21.2929C53.9491 21.2929 55.1007 21.9132 55.9521 22.7107L57.3512 21.3105C56.1643 20.1764 54.587 19.3086 52.3718 19.3086C48.3669 19.3086 45 22.5688 45 26.5737C45 30.5785 48.3669 33.8387 52.3718 33.8387C54.5342 33.8387 56.1643 33.1304 57.4403 31.8017C58.7514 30.4894 59.1595 28.647 59.1595 27.1588C59.1595 26.698 59.1232 26.2723 59.0528 25.9181H52.3718ZM64.5579 31.9963C63.1401 31.9963 61.9181 30.8271 61.9181 29.1607C61.9181 27.4778 63.1401 26.3262 64.5579 26.3262C65.9758 26.3262 67.1978 27.4778 67.1978 29.1607C67.1978 30.8271 65.9758 31.9963 64.5579 31.9963ZM64.5579 24.4827C61.9709 24.4827 59.8623 26.4494 59.8623 29.1607C59.8623 31.8545 61.9709 33.8387 64.5579 33.8387C67.145 33.8387 69.2536 31.8545 69.2536 29.1607C69.2536 26.4494 67.145 24.4827 64.5579 24.4827ZM74.8016 31.9963C73.3849 31.9963 72.1618 30.8271 72.1618 29.1607C72.1618 27.4778 73.3849 26.3262 74.8016 26.3262C76.2195 26.3262 77.4426 27.4778 77.4426 29.1607C77.4426 30.8271 76.2195 31.9963 74.8016 31.9963ZM74.8016 24.4827C72.2146 24.4827 70.106 26.4494 70.106 29.1607C70.106 31.8545 72.2146 33.8387 74.8016 33.8387C77.3898 33.8387 79.4984 31.8545 79.4984 29.1607C79.4984 26.4494 77.3898 24.4827 74.8016 24.4827Z" fill="white"/>
<defs>
<linearGradient id="paint0_linear" x1="23.9781" y1="9.72775" x2="5.51809" y2="-8.73228" gradientUnits="userSpaceOnUse">
<stop stop-color="#00A0FF"/>
<stop offset="1" stop-color="#00E2FF"/>
</linearGradient>
<linearGradient id="paint1_linear" x1="37.2175" y1="22.1481" x2="10.6018" y2="22.1481" gradientUnits="userSpaceOnUse">
<stop stop-color="#FFDF00"/>
<stop offset="1" stop-color="#FF9C00"/>
</linearGradient>
<linearGradient id="paint2_linear" x1="27.3071" y1="24.6716" x2="2.27398" y2="-0.361553" gradientUnits="userSpaceOnUse">
<stop stop-color="#FF3A44"/>
<stop offset="1" stop-color="#C31162"/>
</linearGradient>
<linearGradient id="paint3_linear" x1="8.02946" y1="0.339015" x2="19.2078" y2="-10.8393" gradientUnits="userSpaceOnUse">
<stop stop-color="#31A070"/>
<stop offset="1" stop-color="#00EF75"/>
</linearGradient>
<linearGradient id="paint4_linear" x1="37.2179" y1="22.1477" x2="10.6027" y2="22.1477" gradientUnits="userSpaceOnUse">
<stop stop-color="#CCB300"/>
<stop offset="1" stop-color="#CC7C00"/>
</linearGradient>
<linearGradient id="paint5_linear" x1="27.3085" y1="24.6699" x2="2.27531" y2="-0.363217" gradientUnits="userSpaceOnUse">
<stop stop-color="#CC2D36"/>
<stop offset="1" stop-color="#9C0E4D"/>
</linearGradient>
<linearGradient id="paint6_linear" x1="23.9781" y1="9.72679" x2="5.51812" y2="-8.73326" gradientUnits="userSpaceOnUse">
<stop stop-color="#008CDF"/>
<stop offset="1" stop-color="#00C6DF"/>
</linearGradient>
<linearGradient id="paint7_linear" x1="27.309" y1="24.6705" x2="2.27458" y2="-0.363388" gradientUnits="userSpaceOnUse">
<stop stop-color="#DF333B"/>
<stop offset="1" stop-color="#AA0E56"/>
</linearGradient>
<linearGradient id="paint8_linear" x1="37.2169" y1="22.1479" x2="10.6013" y2="22.1479" gradientUnits="userSpaceOnUse">
<stop stop-color="#DFC400"/>
<stop offset="1" stop-color="#DF8900"/>
</linearGradient>
<linearGradient id="paint9_linear" x1="37.2169" y1="22.1463" x2="10.6013" y2="22.1463" gradientUnits="userSpaceOnUse">
<stop stop-color="#FFE83F"/>
<stop offset="1" stop-color="#FFB53F"/>
</linearGradient>
<linearGradient id="paint10_linear" x1="23.9781" y1="9.72701" x2="5.51806" y2="-8.73304" gradientUnits="userSpaceOnUse">
<stop stop-color="#3FB8FF"/>
<stop offset="1" stop-color="#3FE9FF"/>
</linearGradient>
<linearGradient id="paint11_linear" x1="8.02657" y1="0.339018" x2="19.2049" y2="-10.8393" gradientUnits="userSpaceOnUse">
<stop stop-color="#64B895"/>
<stop offset="1" stop-color="#3FF497"/>
</linearGradient>
</defs>
</svg>
