<svg width="148" height="44" viewBox="0 0 148 44" fill="none" xmlns="http://www.w3.org/2000/svg">
<path fill-rule="evenodd" clip-rule="evenodd" d="M3.30112 0C1.47796 0 0 1.37438 0 3.06977V40.9302C0 42.6256 1.47796 44 3.30112 44H144.699C146.522 44 148 42.6256 148 40.9302V3.06977C148 1.37438 146.522 0 144.699 0H3.30112Z" fill="black"/>
<path fill-rule="evenodd" clip-rule="evenodd" d="M27.8267 6C27.9579 7.71262 27.4163 9.4089 26.3169 10.7286C25.7905 11.3834 25.1224 11.9101 24.3628 12.2692C23.6033 12.6284 22.7722 12.8104 21.9322 12.8018C21.8786 11.9782 21.9878 11.1521 22.2537 10.3708C22.5195 9.58948 22.9367 8.86821 23.4815 8.24822C24.5957 6.97913 26.1472 6.17641 27.8267 6ZM30.8904 18.4649C30.3322 19.4483 30.0319 20.5569 30.0173 21.6876C30.0187 22.9595 30.3944 24.2028 31.0977 25.2625C31.8009 26.3223 32.8005 27.1516 33.9719 27.647C33.5114 29.1431 32.8171 30.557 31.915 31.8363C30.7034 33.6488 29.4331 35.4194 27.4168 35.4521C26.4579 35.4743 25.8106 35.1985 25.1361 34.9112C24.4325 34.6115 23.6994 34.2992 22.5522 34.2992C21.3355 34.2992 20.5695 34.6215 19.8308 34.9324C19.1924 35.2011 18.5743 35.4612 17.7033 35.4974C15.7831 35.5685 14.3156 33.563 13.06 31.7676C10.5503 28.101 8.59608 21.4346 11.216 16.8986C11.8208 15.8118 12.6969 14.9001 13.7588 14.2525C14.8206 13.6049 16.0322 13.2434 17.2753 13.2032C18.3644 13.1808 19.4094 13.6006 20.3256 13.9686C21.0263 14.25 21.6516 14.5012 22.1637 14.5012C22.6138 14.5012 23.2217 14.26 23.9301 13.9788C25.0461 13.5359 26.4115 12.9939 27.803 13.14C28.8694 13.1734 29.9133 13.4549 30.8519 13.9623C31.7904 14.4697 32.5977 15.189 33.2097 16.0629C32.2464 16.6552 31.4486 17.4814 30.8904 18.4649Z" fill="white"/>
<path d="M56.6625 29.3946H51.4558L50.2054 33.4137H48L52.9317 18.5443H55.223L60.1547 33.4137H57.9118L56.6625 29.3946ZM51.995 27.54H56.1222L54.0876 21.0175H54.0307L51.995 27.54Z" fill="white"/>
<path d="M70.8056 27.9938C70.8056 31.3626 69.1492 33.5271 66.6495 33.5271C66.0162 33.5631 65.3865 33.4044 64.8323 33.0689C64.2781 32.7335 63.822 32.235 63.516 31.6304H63.4687V37H61.4244V22.5727H63.4032V24.3758H63.4408C63.7608 23.7742 64.2247 23.2782 64.7831 22.9407C65.3415 22.6033 65.9735 22.4369 66.6119 22.4593C69.1394 22.4593 70.8056 24.6343 70.8056 27.9938ZM68.7044 27.9938C68.7044 25.7989 67.6624 24.356 66.0726 24.356C64.5107 24.356 63.4601 25.8293 63.4601 27.9938C63.4601 30.1781 64.5107 31.6409 66.0726 31.6409C67.6624 31.6409 68.7044 30.2085 68.7044 27.9938Z" fill="white"/>
<path d="M81.7669 27.9938C81.7669 31.3626 80.1104 33.5271 77.6107 33.5271C76.9775 33.5631 76.3478 33.4044 75.7936 33.0689C75.2394 32.7335 74.7832 32.2349 74.4773 31.6304H74.43V37H72.3857V22.5727H74.3644V24.3758H74.402C74.7221 23.7742 75.186 23.2782 75.7444 22.9407C76.3028 22.6032 76.9348 22.4369 77.5731 22.4593C80.1008 22.4593 81.7669 24.6342 81.7669 27.9938ZM79.6657 27.9938C79.6657 25.7989 78.6237 24.3559 77.0339 24.3559C75.472 24.3559 74.4214 25.8293 74.4214 27.9938C74.4214 30.1781 75.472 31.6409 77.0339 31.6409C78.6237 31.6409 79.6657 30.2085 79.6657 27.9938H79.6657Z" fill="white"/>
<path d="M89.0114 29.2707C89.1629 30.7452 90.4788 31.7134 92.277 31.7134C94 31.7134 95.2397 30.7452 95.2397 29.4156C95.2397 28.2615 94.492 27.5704 92.7217 27.0968L90.9514 26.6326C88.4431 25.9731 87.2787 24.6961 87.2787 22.6241C87.2787 20.0585 89.3326 18.2963 92.2491 18.2963C95.1355 18.2963 97.1142 20.0585 97.1808 22.6241H95.1172C94.9937 21.1402 93.8668 20.2445 92.22 20.2445C90.5733 20.2445 89.4464 21.1507 89.4464 22.4697C89.4464 23.521 90.1662 24.1395 91.9268 24.6131L93.4318 25.0153C96.2344 25.7368 97.3988 26.9623 97.3988 29.1373C97.3988 31.9191 95.3632 33.6614 92.1255 33.6614C89.0962 33.6614 87.0509 31.96 86.9188 29.2706L89.0114 29.2707Z" fill="white"/>
<path d="M101.811 20.0071V22.5727H103.704V24.3349H101.811V30.3114C101.811 31.2398 102.19 31.6725 103.022 31.6725C103.247 31.6682 103.472 31.651 103.695 31.621V33.3727C103.321 33.4488 102.94 33.4833 102.559 33.4756C100.543 33.4756 99.7567 32.6512 99.7567 30.5487V24.3349H98.3087V22.5727H99.7567V20.0071H101.811Z" fill="white"/>
<path d="M104.801 27.9938C104.801 24.5828 106.647 22.4394 109.525 22.4394C112.412 22.4394 114.249 24.5827 114.249 27.9938C114.249 31.4141 112.422 33.5481 109.525 33.5481C106.629 33.5481 104.801 31.4141 104.801 27.9938ZM112.166 27.9938C112.166 25.6539 111.181 24.2729 109.525 24.2729C107.868 24.2729 106.884 25.6644 106.884 27.9938C106.884 30.343 107.868 31.7134 109.525 31.7134C111.181 31.7134 112.166 30.343 112.166 27.9938H112.166Z" fill="white"/>
<path d="M115.934 22.5727H117.884V24.4179H117.931C118.063 23.8416 118.374 23.3323 118.81 22.9756C119.246 22.6189 119.782 22.4366 120.327 22.4592C120.563 22.4583 120.797 22.4862 121.027 22.5423V24.6237C120.73 24.5248 120.42 24.4793 120.109 24.4892C119.812 24.4761 119.516 24.5331 119.241 24.6563C118.966 24.7795 118.719 24.966 118.517 25.2029C118.314 25.4399 118.161 25.7217 118.069 26.029C117.976 26.3364 117.945 26.662 117.979 26.9834V33.4136H115.934L115.934 22.5727Z" fill="white"/>
<path d="M130.452 30.2295C130.177 32.1975 128.417 33.5481 126.164 33.5481C123.267 33.5481 121.469 31.4351 121.469 28.0452C121.469 24.6448 123.277 22.4394 126.078 22.4394C128.834 22.4394 130.566 24.4997 130.566 27.7868V28.5492H123.532V28.6837C123.5 29.0826 123.546 29.4846 123.667 29.8627C123.788 30.2409 123.982 30.5867 124.235 30.8772C124.489 31.1676 124.796 31.396 125.137 31.5472C125.477 31.6985 125.844 31.7691 126.211 31.7543C126.695 31.8036 127.179 31.6818 127.594 31.4071C128.008 31.1324 128.33 30.7194 128.511 30.2295L130.452 30.2295ZM123.542 26.994H128.521C128.539 26.6352 128.489 26.2762 128.374 25.9395C128.259 25.6028 128.081 25.2956 127.852 25.0372C127.623 24.7789 127.347 24.5749 127.041 24.4382C126.736 24.3014 126.408 24.2348 126.078 24.2425C125.745 24.2403 125.415 24.31 125.107 24.4474C124.799 24.5847 124.519 24.7872 124.283 25.043C124.048 25.2988 123.861 25.6029 123.734 25.9378C123.606 26.2726 123.541 26.6316 123.542 26.994V26.994Z" fill="white"/>
<path d="M51.7388 7.35204C52.1674 7.31856 52.5974 7.38904 52.998 7.55839C53.3985 7.72775 53.7595 7.99175 54.0549 8.33136C54.3504 8.67098 54.5729 9.07773 54.7064 9.5223C54.84 9.96686 54.8812 10.4381 54.8272 10.9022C54.8272 13.1847 53.6939 14.4968 51.7388 14.4968H49.368V7.35204H51.7388ZM50.3874 13.4863H51.6249C51.9312 13.5063 52.2376 13.4516 52.522 13.3263C52.8064 13.2011 53.0616 13.0084 53.2689 12.7622C53.4763 12.5161 53.6306 12.2227 53.7206 11.9034C53.8107 11.5842 53.8342 11.2471 53.7895 10.9167C53.831 10.5876 53.805 10.2526 53.7136 9.93572C53.6222 9.61881 53.4675 9.32783 53.2606 9.08365C53.0538 8.83946 52.7998 8.64811 52.517 8.52329C52.2343 8.39848 51.9296 8.3433 51.6249 8.3617H50.3874V13.4863Z" fill="white"/>
<path d="M55.9787 11.7984C55.9476 11.4441 55.9848 11.0866 56.0881 10.7488C56.1913 10.4111 56.3582 10.1005 56.5781 9.83711C56.7981 9.5737 57.0662 9.36324 57.3652 9.21922C57.6642 9.0752 57.9876 9.00081 58.3146 9.00081C58.6416 9.00081 58.965 9.0752 59.264 9.21922C59.5631 9.36324 59.8311 9.5737 60.0511 9.83711C60.271 10.1005 60.438 10.4111 60.5412 10.7488C60.6444 11.0866 60.6816 11.4441 60.6505 11.7984C60.6822 12.1531 60.6454 12.5111 60.5425 12.8494C60.4395 13.1877 60.2727 13.4988 60.0527 13.7627C59.8327 14.0266 59.5644 14.2376 59.2651 14.3819C58.9658 14.5262 58.642 14.6008 58.3146 14.6008C57.9872 14.6008 57.6635 14.5262 57.3641 14.3819C57.0648 14.2376 56.7965 14.0266 56.5765 13.7627C56.3565 13.4988 56.1897 13.1877 56.0867 12.8494C55.9838 12.5111 55.947 12.1531 55.9787 11.7984V11.7984ZM59.645 11.7984C59.645 10.6296 59.1627 9.94617 58.3162 9.94617C57.4665 9.94617 56.9885 10.6296 56.9885 11.7984C56.9885 12.9765 57.4666 13.6547 58.3162 13.6547C59.1627 13.6547 59.645 12.9718 59.645 11.7984H59.645Z" fill="white"/>
<path d="M66.8605 14.4966H65.8465L64.8228 10.5256H64.7454L63.726 14.4966H62.7216L61.3563 9.10481H62.3478L63.2351 13.2191H63.3081L64.3265 9.10481H65.2643L66.2826 13.2191H66.36L67.243 9.10481H68.2205L66.8605 14.4966Z" fill="white"/>
<path d="M69.3688 9.10482H70.3098V9.96136H70.3829C70.5068 9.65372 70.7158 9.39584 70.9808 9.22364C71.2457 9.05145 71.5534 8.97353 71.861 9.00075C72.102 8.98102 72.344 9.02058 72.5691 9.11648C72.7941 9.21239 72.9965 9.36219 73.1611 9.55479C73.3258 9.74738 73.4485 9.97784 73.5202 10.2291C73.592 10.4803 73.6108 10.7459 73.5755 11.0062V14.4966H72.5979V11.2734C72.5979 10.4069 72.252 9.97598 71.5291 9.97598C71.3654 9.96769 71.2021 9.998 71.0502 10.0649C70.8984 10.1317 70.7616 10.2335 70.6492 10.3633C70.5369 10.4931 70.4517 10.6478 70.3994 10.8168C70.3471 10.9857 70.329 11.165 70.3464 11.3424V14.4967H69.3688L69.3688 9.10482Z" fill="white"/>
<path d="M75.1331 7H76.1106V14.4966H75.1331V7Z" fill="white"/>
<path d="M77.4695 11.7984C77.4384 11.4441 77.4756 11.0865 77.5789 10.7488C77.6821 10.411 77.8491 10.1005 78.069 9.83705C78.289 9.57364 78.5571 9.36317 78.8562 9.21915C79.1552 9.07513 79.4786 9.00073 79.8056 9.00073C80.1326 9.00073 80.4561 9.07513 80.7551 9.21915C81.0542 9.36317 81.3223 9.57364 81.5422 9.83705C81.7622 10.1005 81.9291 10.411 82.0324 10.7488C82.1356 11.0865 82.1729 11.4441 82.1418 11.7984C82.1735 12.1531 82.1366 12.5111 82.0337 12.8494C81.9307 13.1877 81.7638 13.4988 81.5438 13.7627C81.3238 14.0267 81.0555 14.2376 80.7561 14.3819C80.4568 14.5262 80.133 14.6008 79.8056 14.6008C79.4782 14.6008 79.1545 14.5262 78.8551 14.3819C78.5558 14.2376 78.2875 14.0267 78.0675 13.7627C77.8474 13.4988 77.6806 13.1877 77.5776 12.8494C77.4746 12.5111 77.4378 12.1531 77.4695 11.7984V11.7984ZM81.1358 11.7984C81.1358 10.6297 80.6534 9.94619 79.807 9.94619C78.9573 9.94619 78.4793 10.6297 78.4793 11.7984C78.4793 12.9765 78.9573 13.6548 79.807 13.6548C80.6534 13.6547 81.1358 12.9719 81.1358 11.7984H81.1358Z" fill="white"/>
<path d="M83.1709 12.9718C83.1709 12.0013 83.8348 11.4418 85.0132 11.3622L86.3549 11.278V10.8127C86.3549 10.2432 86.009 9.92162 85.3408 9.92162C84.7951 9.92162 84.417 10.1397 84.3085 10.5209H83.3621C83.462 9.59478 84.2623 9.00076 85.3859 9.00076C86.6277 9.00076 87.3281 9.67371 87.3281 10.8127V14.4967H86.3871V13.7389H86.3097C86.1528 14.0107 85.9323 14.2323 85.6709 14.381C85.4095 14.5298 85.1166 14.6003 84.822 14.5855C84.614 14.609 84.4039 14.5849 84.205 14.5146C84.0062 14.4443 83.8231 14.3295 83.6675 14.1774C83.512 14.0254 83.3874 13.8396 83.3019 13.6319C83.2163 13.4243 83.1717 13.1994 83.1709 12.9718V12.9718ZM86.3549 12.5111V12.0603L85.1453 12.1445C84.4632 12.1942 84.1538 12.4468 84.1538 12.9221C84.1538 13.4074 84.5405 13.6898 85.0723 13.6898C85.2281 13.707 85.3855 13.6898 85.5351 13.6394C85.6847 13.589 85.8235 13.5064 85.9431 13.3964C86.0628 13.2865 86.1609 13.1514 86.2316 12.9993C86.3024 12.8472 86.3443 12.6812 86.3549 12.5111V12.5111Z" fill="white"/>
<path d="M88.6129 11.7984C88.6129 10.0947 89.4174 9.01538 90.6689 9.01538C90.9785 8.99985 91.2857 9.08056 91.5547 9.24807C91.8236 9.41558 92.0432 9.66297 92.1878 9.96133H92.2609V7H93.2384V14.4966H92.3017V13.6448H92.2244C92.0686 13.9411 91.8413 14.1854 91.5672 14.3512C91.293 14.5171 90.9823 14.5981 90.6689 14.5855C89.4088 14.5856 88.6129 13.5062 88.6129 11.7984ZM89.6226 11.7984C89.6226 12.942 90.1179 13.6302 90.9461 13.6302C91.77 13.6302 92.2792 12.9321 92.2792 11.8031C92.2792 10.6793 91.7646 9.97131 90.9461 9.97131C90.1232 9.97131 89.6226 10.6641 89.6226 11.7984H89.6226Z" fill="white"/>
<path d="M97.2828 11.7984C97.2517 11.4441 97.2889 11.0866 97.3922 10.7488C97.4954 10.4111 97.6623 10.1005 97.8823 9.83711C98.1022 9.5737 98.3703 9.36324 98.6693 9.21922C98.9683 9.0752 99.2917 9.00081 99.6187 9.00081C99.9457 9.00081 100.269 9.0752 100.568 9.21922C100.867 9.36324 101.135 9.5737 101.355 9.83711C101.575 10.1005 101.742 10.4111 101.845 10.7488C101.949 11.0866 101.986 11.4441 101.955 11.7984C101.986 12.1531 101.95 12.5111 101.847 12.8494C101.744 13.1877 101.577 13.4988 101.357 13.7627C101.137 14.0266 100.869 14.2376 100.569 14.3819C100.27 14.5262 99.9461 14.6008 99.6187 14.6008C99.2913 14.6008 98.9676 14.5262 98.6682 14.3819C98.3689 14.2376 98.1006 14.0266 97.8806 13.7627C97.6606 13.4988 97.4938 13.1877 97.3909 12.8494C97.2879 12.5111 97.2511 12.1531 97.2828 11.7984V11.7984ZM100.949 11.7984C100.949 10.6296 100.467 9.94617 99.6203 9.94617C98.7706 9.94617 98.2926 10.6296 98.2926 11.7984C98.2926 12.9765 98.7707 13.6547 99.6203 13.6547C100.467 13.6547 100.949 12.9718 100.949 11.7984Z" fill="white"/>
<path d="M103.266 9.10482H104.207V9.96136H104.28C104.404 9.65372 104.613 9.39584 104.878 9.22364C105.143 9.05145 105.451 8.97353 105.758 9.00075C105.999 8.98102 106.241 9.02058 106.466 9.11648C106.692 9.21239 106.894 9.36219 107.059 9.55479C107.223 9.74738 107.346 9.97784 107.418 10.2291C107.489 10.4803 107.508 10.7459 107.473 11.0062V14.4966H106.495V11.2734C106.495 10.4069 106.149 9.97598 105.426 9.97598C105.263 9.96769 105.099 9.998 104.948 10.0649C104.796 10.1317 104.659 10.2335 104.547 10.3633C104.434 10.4931 104.349 10.6478 104.297 10.8168C104.245 10.9857 104.226 11.165 104.244 11.3424V14.4967H103.266V9.10482Z" fill="white"/>
<path d="M112.996 7.76242V9.12938H114.07V10.0257H112.996V12.7982C112.996 13.363 113.21 13.6103 113.697 13.6103C113.821 13.6099 113.946 13.6017 114.07 13.5857V14.4721C113.894 14.5063 113.716 14.5245 113.538 14.5265C112.451 14.5265 112.018 14.1102 112.018 13.0706V10.0256H111.232V9.12933H112.018V7.76242H112.996Z" fill="white"/>
<path d="M115.405 7H116.374V9.9713H116.451C116.581 9.66079 116.796 9.40144 117.066 9.2286C117.336 9.05576 117.649 8.97783 117.961 9.00542C118.201 8.99122 118.441 9.0348 118.663 9.13303C118.886 9.23127 119.086 9.38175 119.249 9.57374C119.412 9.76573 119.534 9.9945 119.606 10.2437C119.678 10.4929 119.699 10.7565 119.667 11.0155V14.4967H118.689V11.278C118.689 10.4168 118.32 9.98064 117.63 9.98064C117.462 9.96564 117.293 9.99078 117.134 10.0543C116.976 10.1178 116.833 10.2182 116.714 10.3484C116.595 10.4786 116.504 10.6355 116.447 10.8081C116.389 10.9807 116.368 11.1648 116.382 11.3476V14.4966H115.405L115.405 7Z" fill="white"/>
<path d="M125.367 13.0408C125.234 13.5336 124.947 13.9598 124.554 14.245C124.162 14.5302 123.69 14.6561 123.221 14.6007C122.895 14.6101 122.57 14.542 122.27 14.4013C121.971 14.2606 121.703 14.0505 121.485 13.7857C121.267 13.521 121.105 13.2078 121.01 12.8679C120.914 12.5281 120.888 12.1697 120.933 11.8177C120.889 11.4646 120.916 11.1055 121.011 10.7646C121.106 10.4237 121.268 10.1091 121.484 9.84197C121.701 9.57486 121.967 9.36151 122.266 9.21638C122.565 9.07125 122.889 8.99771 123.217 9.00075C124.595 9.00075 125.426 10.0257 125.426 11.7189V12.0902H121.929V12.1498C121.913 12.3477 121.936 12.5468 121.996 12.7345C122.055 12.9222 122.15 13.0943 122.274 13.2397C122.398 13.3851 122.549 13.5007 122.717 13.579C122.884 13.6573 123.065 13.6966 123.248 13.6944C123.482 13.725 123.718 13.6792 123.928 13.5628C124.138 13.4464 124.311 13.2647 124.426 13.0408L125.367 13.0408ZM121.929 11.3032H124.43C124.443 11.1222 124.42 10.9404 124.364 10.7696C124.308 10.5987 124.22 10.4424 124.105 10.3109C123.99 10.1793 123.851 10.0754 123.697 10.0057C123.543 9.93608 123.378 9.90224 123.211 9.9064C123.042 9.90409 122.874 9.93864 122.718 10.008C122.561 10.0774 122.419 10.1802 122.299 10.3104C122.18 10.4406 122.085 10.5955 122.022 10.766C121.958 10.9365 121.926 11.1191 121.929 11.3032H121.929Z" fill="white"/>
</svg>
